<svg xmlns="http://www.w3.org/2000/svg" width="25" height="24" viewBox="0 0 25 24" fill="none">
    <path d="M9.8711 3V1H15.8711V3H9.8711ZM11.8711 14H13.8711V8H11.8711V14ZM12.8711 22C11.6378 22 10.4751 21.7623 9.3831 21.287C8.2911 20.8117 7.3371 20.166 6.5211 19.35C5.70443 18.5333 5.05843 17.579 4.5831 16.487C4.10776 15.395 3.87043 14.2327 3.8711 13C3.8711 11.7667 4.10876 10.604 4.5841 9.512C5.05943 8.42 5.7051 7.466 6.5211 6.65C7.33776 5.83333 8.29209 5.18733 9.38409 4.712C10.4761 4.23667 11.6384 3.99933 12.8711 4C13.9044 4 14.8961 4.16667 15.8461 4.5C16.7961 4.83333 17.6878 5.31667 18.5211 5.95L19.9211 4.55L21.3211 5.95L19.9211 7.35C20.5544 8.18333 21.0378 9.075 21.3711 10.025C21.7044 10.975 21.8711 11.9667 21.8711 13C21.8711 14.2333 21.6334 15.396 21.1581 16.488C20.6828 17.58 20.0371 18.534 19.2211 19.35C18.4044 20.1667 17.4501 20.8127 16.3581 21.288C15.2661 21.7633 14.1038 22.0007 12.8711 22ZM12.8711 20C14.8044 20 16.4544 19.3167 17.8211 17.95C19.1878 16.5833 19.8711 14.9333 19.8711 13C19.8711 11.0667 19.1878 9.41667 17.8211 8.05C16.4544 6.68333 14.8044 6 12.8711 6C10.9378 6 9.28776 6.68333 7.9211 8.05C6.55443 9.41667 5.8711 11.0667 5.8711 13C5.8711 14.9333 6.55443 16.5833 7.9211 17.95C9.28776 19.3167 10.9378 20 12.8711 20Z" fill="#333333"/>
</svg>